<svg xmlns="http://www.w3.org/2000/svg" width="512" height="320" viewBox="0 0 512 320">
  <rect width="512" height="320" rx="18" fill="#f4dda0"/>
  <path d="M0 250 C90 216 144 232 226 206 C315 178 392 188 512 156 L512 320 L0 320 Z" fill="#d7efbd"/>
  <path d="M0 238 C92 206 164 224 250 190 C336 156 420 168 512 134" fill="none" stroke="#d0a866" stroke-width="20" stroke-linecap="round"/>
  <circle cx="112" cy="88" r="34" fill="#8fcf7d"/>
  <circle cx="132" cy="84" r="30" fill="#76b96c"/>
  <rect x="121" y="108" width="16" height="42" rx="6" fill="#98643e"/>
  <circle cx="370" cy="68" r="38" fill="#f8d96b"/>
  <path d="M330 128 L420 128 L405 190 L345 190 Z" fill="#fff2c4" stroke="#bd955a" stroke-width="6"/>
  <path d="M342 122 L405 122 L388 86 L356 86 Z" fill="#df8b5d" stroke="#9e6846" stroke-width="6"/>
  <rect x="366" y="150" width="18" height="40" rx="4" fill="#8b6042"/>
  <circle cx="82" cy="212" r="7" fill="#e6819b"/>
  <circle cx="104" cy="224" r="6" fill="#f1b7c8"/>
  <circle cx="424" cy="236" r="6" fill="#e6819b"/>
  <circle cx="446" cy="220" r="7" fill="#f4b35e"/>
</svg>
